<svg xmlns="http://www.w3.org/2000/svg" viewBox="0 0 100 100">
  <rect width="100" height="100" rx="16" fill="#1a4a45"/>
  <g transform="translate(50,50)">
    <path d="M-22,-18 Q-22,-20 -20,-20 L-3,-20 Q0,-20 0,-18 L0,19 Q-3,17 -20,17 Q-22,17 -22,15 Z" fill="white" opacity="0.95"/>
    <path d="M22,-18 Q22,-20 20,-20 L3,-20 Q0,-20 0,-18 L0,19 Q3,17 20,17 Q22,17 22,15 Z" fill="white" opacity="0.85"/>
    <line x1="0" y1="-19" x2="0" y2="18" stroke="#1a4a45" stroke-width="1"/>
    <line x1="-17" y1="-13" x2="-5" y2="-13" stroke="#c8963e" stroke-width="2" stroke-linecap="round"/>
    <line x1="-17" y1="-7" x2="-5" y2="-7" stroke="#c8963e" stroke-width="2" stroke-linecap="round"/>
    <line x1="-17" y1="-1" x2="-5" y2="-1" stroke="#c8963e" stroke-width="1.5" stroke-linecap="round"/>
    <line x1="-17" y1="5" x2="-5" y2="5" stroke="#c8963e" stroke-width="1.5" stroke-linecap="round"/>
  </g>
</svg>
